<svg width="20" height="18" viewBox="0 0 20 18" fill="none" xmlns="http://www.w3.org/2000/svg">
<path fillRule="evenodd" clipRule="evenodd" d="M8 2.37142C4.3392 2.37142 1.37143 5.3392 1.37143 9C1.37143 12.6608 4.3392 15.6286 8 15.6286C11.6608 15.6286 14.6285 12.6608 14.6285 9C14.6285 7.688 14.2482 6.46742 13.5927 5.43977C13.3888 5.12068 13.482 4.69645 13.8011 4.49257C14.1202 4.28868 14.5444 4.38285 14.7483 4.70194C15.541 5.94354 16 7.4192 16 9C16 13.4188 12.4187 17 8 17C3.58217 17 0 13.4188 0 9C0 4.58217 3.58217 1 8 1C9.58446 1 11.0637 1.46171 12.3072 2.25714C12.6263 2.46194 12.7195 2.88525 12.5147 3.20434C12.3108 3.52342 11.8866 3.61668 11.5675 3.4128C10.538 2.7536 9.31474 2.37142 8 2.37142Z" fill="currentColor"/>
<g filter="url(#filter0_d_1076_70)">
<path fillRule="evenodd" clipRule="evenodd" d="M17.0275 2.2358C17.3156 2.53914 17.3033 3.01865 17 3.30682L7.7036 11.8713C7.40574 12.1543 6.93663 12.1483 6.64613 11.8578L4.22189 9.43357C3.92604 9.13772 3.92604 8.65805 4.22189 8.3622C4.51774 8.06634 4.99741 8.06634 5.29326 8.3622L7.19538 10.2643L15.9564 2.20834C16.2598 1.92017 16.7393 1.93246 17.0275 2.2358Z" fill="currentColor"/>
</g>
<defs>
<filter id="filter0_d_1076_70" x="2" y="1" width="17.2358" height="14.0796" filterUnits="userSpaceOnUse" color-interpolation-filters="sRGB">
<feFlood flood-opacity="0" result="BackgroundImageFix"/>
<feColorMatrix in="SourceAlpha" type="matrix" values="0 0 0 0 0 0 0 0 0 0 0 0 0 0 0 0 0 0 127 0" result="hardAlpha"/>
<feOffset dy="1"/>
<feGaussianBlur stdDeviation="1"/>
<feColorMatrix type="matrix" values="0 0 0 0 0.266667 0 0 0 0 0.337255 0 0 0 0 0.423529 0 0 0 0.25 0"/>
<feBlend mode="normal" in2="BackgroundImageFix" result="effect1_dropShadow_1076_70"/>
<feBlend mode="normal" in="SourceGraphic" in2="effect1_dropShadow_1076_70" result="shape"/>
</filter>
</defs>
</svg>
