<svg width="20" height="20" viewBox="0 0 20 20" fill="none" xmlns="http://www.w3.org/2000/svg">
<path fill-rule="evenodd" clip-rule="evenodd" d="M6.75 2C4.12665 2 2 4.12665 2 6.75V13.25C2 15.8734 4.12665 18 6.75 18H13.25C15.8734 18 18 15.8734 18 13.25V6.75C18 4.12665 15.8734 2 13.25 2H6.75ZM3.5 6.75C3.5 4.95508 4.95507 3.5 6.75 3.5H13.25C15.0449 3.5 16.5 4.95507 16.5 6.75V13.25C16.5 15.0449 15.0449 16.5 13.25 16.5H6.75C4.95508 16.5 3.5 15.0449 3.5 13.25V6.75ZM13.5858 8.74246C13.8922 8.46383 13.9148 7.98949 13.6362 7.683C13.3576 7.37651 12.8832 7.35392 12.5767 7.63255L9.09375 10.7989L7.78576 9.60982C7.47926 9.33119 7.00493 9.35378 6.7263 9.66027C6.44767 9.96677 6.47025 10.4411 6.77675 10.7197L8.58925 12.3675C8.87531 12.6275 9.31219 12.6275 9.59826 12.3675L13.5858 8.74246Z" fill="#3F434A"/>
</svg>
