<svg width="20" height="18" viewBox="0 0 20 18" fill="none" xmlns="http://www.w3.org/2000/svg">
<mask id="mask0_1076_87" style="mask-type:alpha" maskUnits="userSpaceOnUse" x="0" y="1" width="16" height="16">
<path fillRule="evenodd" clipRule="evenodd" d="M8 17C12.4183 17 16 13.4183 16 9C16 4.58172 12.4183 1 8 1C3.58172 1 0 4.58172 0 9C0 13.4183 3.58172 17 8 17Z" fill="currentColor"/>
</mask>
<g mask="url(#mask0_1076_87)">
<rect y="1" width="16" height="16" fill="#F8F8F8"/>
<path d="M15.25 9C15.25 13.0041 12.0041 16.25 8 16.25C3.99594 16.25 0.75 13.0041 0.75 9C0.75 4.99594 3.99594 1.75 8 1.75C12.0041 1.75 15.25 4.99594 15.25 9Z" stroke="#E8E9EB" stroke-width="1.5"/>
</g>
<g filter="url(#filter0_d_1076_87)">
<path fillRule="evenodd" clipRule="evenodd" d="M17.0275 2.2358C17.3156 2.53914 17.3033 3.01865 17 3.30682L7.7036 11.8713C7.40574 12.1543 6.93663 12.1483 6.64613 11.8578L4.22189 9.43357C3.92604 9.13772 3.92604 8.65805 4.22189 8.3622C4.51774 8.06634 4.99741 8.06634 5.29326 8.3622L7.19538 10.2643L15.9564 2.20834C16.2598 1.92017 16.7393 1.93246 17.0275 2.2358Z" fill="currentColor"/>
</g>
<defs>
<filter id="filter0_d_1076_87" x="2" y="1" width="17.2358" height="14.0796" filterUnits="userSpaceOnUse" color-interpolation-filters="sRGB">
<feFlood flood-opacity="0" result="BackgroundImageFix"/>
<feColorMatrix in="SourceAlpha" type="matrix" values="0 0 0 0 0 0 0 0 0 0 0 0 0 0 0 0 0 0 127 0" result="hardAlpha"/>
<feOffset dy="1"/>
<feGaussianBlur stdDeviation="1"/>
<feColorMatrix type="matrix" values="0 0 0 0 0.266667 0 0 0 0 0.337255 0 0 0 0 0.423529 0 0 0 0.25 0"/>
<feBlend mode="normal" in2="BackgroundImageFix" result="effect1_dropShadow_1076_87"/>
<feBlend mode="normal" in="SourceGraphic" in2="effect1_dropShadow_1076_87" result="shape"/>
</filter>
</defs>
</svg>
