<svg width="20" height="20" viewBox="0 0 20 20" fill="none" xmlns="http://www.w3.org/2000/svg">
<path fill-rule="evenodd" clip-rule="evenodd" d="M16.1454 17.6818C16.5697 18.106 17.2575 18.106 17.6817 17.6818C18.1061 17.2576 18.1061 16.5696 17.6817 16.1454L11.5364 9.99997L17.6818 3.85455C18.1061 3.43029 18.1061 2.74244 17.6818 2.31819C17.2575 1.89394 16.5697 1.89394 16.1454 2.31819L9.99998 8.46357L3.85455 2.3182C3.43029 1.89395 2.74244 1.89395 2.31819 2.3182C1.89394 2.74246 1.89394 3.43032 2.31819 3.85457L8.46359 9.99997L2.3182 16.1454C1.89395 16.5696 1.89395 17.2575 2.3182 17.6818C2.74246 18.106 3.43031 18.106 3.85456 17.6818L9.99998 11.5364L16.1454 17.6818Z" fill="#3F434A"/>
</svg>
