<svg width="16" height="16" viewBox="0 0 16 16" fill="none" xmlns="http://www.w3.org/2000/svg">
<path fill-rule="evenodd" clip-rule="evenodd" d="M2.36111 1.5C2.13273 1.5 1.9137 1.59072 1.75221 1.75221C1.59072 1.9137 1.5 2.13273 1.5 2.36111V13.6389C1.5 13.8673 1.59072 14.0863 1.75221 14.2478C1.9137 14.4093 2.13273 14.5 2.36111 14.5H5.58333C5.99755 14.5 6.33333 14.8358 6.33333 15.25C6.33333 15.6642 5.99755 16 5.58333 16H2.36111C1.73491 16 1.13435 15.7512 0.691553 15.3084C0.248759 14.8657 0 14.2651 0 13.6389V2.36111C0 1.73491 0.248759 1.13435 0.691553 0.691553C1.13435 0.248759 1.73491 0 2.36111 0H5.58333C5.99755 0 6.33333 0.335786 6.33333 0.75C6.33333 1.16421 5.99755 1.5 5.58333 1.5H2.36111ZM10.6919 3.4419C10.9848 3.14901 11.4597 3.14901 11.7526 3.4419L15.7803 7.46968C15.8597 7.54903 15.9175 7.64175 15.9539 7.74058C15.9765 7.80199 15.9914 7.86718 15.9972 7.93494C16.0065 8.042 15.9928 8.15067 15.9562 8.25299C15.9201 8.35423 15.8614 8.44926 15.7803 8.53034L11.7526 12.5581C11.4597 12.851 10.9848 12.851 10.6919 12.5581C10.399 12.2652 10.399 11.7903 10.6919 11.4975L13.4394 8.75H5.58331C5.1691 8.75 4.83331 8.41421 4.83331 8C4.83331 7.58579 5.1691 7.25 5.58331 7.25H13.4393L10.6919 4.50256C10.399 4.20967 10.399 3.73479 10.6919 3.4419Z" fill="#8A9099"/>
</svg>
