<svg width="25" height="26" viewBox="0 0 25 26" fill="none" xmlns="http://www.w3.org/2000/svg">
<path d="M4.1335 15.4844L9.11838 15.522C9.72658 15.5266 10.245 15.9616 10.3551 16.5598L11.2578 21.4624C11.3542 21.9861 11.003 22.4888 10.4779 22.5788L4.31056 23.6365C3.73066 23.7359 3.20158 23.2919 3.19881 22.7036L3.16944 16.4463C3.16694 15.9135 3.60101 15.4804 4.1335 15.4844Z" fill="#FF965D"/>
<path d="M10.5065 1.28832L22.484 0.315009C22.9995 0.273119 23.4531 0.649799 23.5067 1.16421L24.7856 13.4585C24.847 14.0488 24.3603 14.5531 23.7685 14.5124L0.812981 12.9345C0.294961 12.8989 0.0377807 12.2904 0.372291 11.8917L8.32158 2.41817C8.87018 1.76436 9.65728 1.35733 10.5065 1.28832Z" fill="#304FFD"/>
<path d="M15.4905 24.9883L22.03 17.1948C22.3697 16.7899 22.0986 16.1726 21.5716 16.1511L13.6803 15.8289C13.0554 15.8034 12.5736 16.3766 12.7062 16.9878L14.3828 24.7171C14.4947 25.233 15.1504 25.3935 15.4905 24.9883Z" fill="#304FFD"/>
</svg>
