<svg width="16" height="16" viewBox="0 0 16 16" fill="none" xmlns="http://www.w3.org/2000/svg">
<path fill-rule="evenodd" clip-rule="evenodd" d="M0.309242 4.77161C-0.427656 5.98318 0.276353 7.23475 1.12525 7.69965L1.29948 7.79476C1.29681 7.86409 1.29503 7.93343 1.29414 8.0001C1.29503 8.06676 1.29681 8.1361 1.29948 8.20543L1.12525 8.30054C0.276353 8.76544 -0.427656 10.017 0.309242 11.2286L1.29325 12.8446C1.98126 13.9744 3.32172 14.0251 4.14129 13.5762L4.29951 13.489C4.49685 13.6171 4.70218 13.7362 4.91196 13.8464V13.8766C4.91196 14.9628 5.76975 16.0002 7.01599 16.0002H8.98401C10.2302 16.0002 11.088 14.9628 11.088 13.8766V13.8464C11.2978 13.7362 11.5032 13.6171 11.7005 13.489L11.8587 13.5762C12.6783 14.0251 14.0187 13.9744 14.7067 12.8446L15.6908 11.2286C16.4277 10.017 15.7236 8.76544 14.8747 8.30054L14.7005 8.20543C14.7032 8.1361 14.705 8.06676 14.7059 8.0001C14.705 7.93343 14.7032 7.86409 14.7005 7.79476L14.8747 7.69965C15.7236 7.23475 16.4277 5.98318 15.6908 4.77161L14.7067 3.15559C14.0187 2.0258 12.6783 1.97602 11.8587 2.42403L11.7005 2.51114C11.5032 2.38314 11.2978 2.26403 11.088 2.1538V2.12358C11.088 1.03735 10.2302 0 8.98401 0H7.01599C5.76975 0 4.91196 1.03735 4.91196 2.12358V2.1538C4.70218 2.26403 4.49685 2.38314 4.29951 2.51114L4.14129 2.42403C3.32172 1.97602 1.98126 2.0258 1.29325 3.15559L0.309242 4.77161ZM4.46396 4.62761L3.28972 3.98405C3.1155 3.88894 2.90038 3.9316 2.80972 4.08094L1.8257 5.69696C1.73504 5.84629 1.80259 6.04363 1.97682 6.13963L3.21772 6.81875C3.12172 7.19653 3.07016 7.59298 3.07016 8.0001C3.07016 8.40721 3.12172 8.80366 3.21772 9.18144L1.97682 9.86056C1.80259 9.95656 1.73504 10.1539 1.8257 10.3032L2.80972 11.9193C2.90038 12.0686 3.1155 12.1113 3.28972 12.0161L4.46396 11.3726C5.06663 11.9815 5.8302 12.4348 6.68798 12.6668V13.8766C6.68798 14.0677 6.83465 14.2224 7.01599 14.2224H8.98401C9.16535 14.2224 9.31202 14.0677 9.31202 13.8766V12.6668C10.1698 12.4348 10.9334 11.9815 11.536 11.3726L12.7103 12.0161C12.8845 12.1113 13.0996 12.0686 13.1903 11.9193L14.1743 10.3032C14.265 10.1539 14.1974 9.95656 14.0232 9.86056L12.7823 9.18144C12.8783 8.80366 12.9298 8.40721 12.9298 8.0001C12.9298 7.59298 12.8783 7.19653 12.7823 6.81875L14.0232 6.13963C14.1974 6.04363 14.265 5.84629 14.1743 5.69696L13.1903 4.08094C13.0996 3.9316 12.8845 3.88894 12.7103 3.98405L11.536 4.62761C10.9334 4.01871 10.1698 3.56538 9.31202 3.33426V2.12358C9.31202 1.93247 9.16535 1.7778 8.98401 1.7778H7.01599C6.83465 1.7778 6.68798 1.93247 6.68798 2.12358V3.33426C5.8302 3.56538 5.06663 4.01871 4.46396 4.62761ZM7.99654 10.6668C9.46767 10.6668 10.6597 9.473 10.6597 8.00009C10.6597 6.52719 9.46767 5.3334 7.99654 5.3334C6.52541 5.3334 5.3334 6.52719 5.3334 8.00009C5.3334 9.473 6.52541 10.6668 7.99654 10.6668ZM9 8C9 8.552 8.55255 9 8 9C7.44745 9 7 8.552 7 8C7 7.448 7.44745 7 8 7C8.55255 7 9 7.448 9 8Z" fill="#8A9099"/>
</svg>
