<svg width="14" height="16" viewBox="0 0 14 16" fill="none" xmlns="http://www.w3.org/2000/svg">
<path fill-rule="evenodd" clip-rule="evenodd" d="M7.37209 0.21967C7.0792 -0.0732233 6.60432 -0.0732233 6.31143 0.21967C6.01854 0.512563 6.01853 0.987437 6.31143 1.28033L7.64996 2.61887C7.55028 2.61929 7.45237 2.62031 7.3618 2.62153C7.17371 2.62406 6.99828 2.62785 6.87006 2.631C6.80586 2.63258 6.7533 2.634 6.71666 2.63503L6.67414 2.63625L6.6702 2.63637C2.98528 2.64264 0 5.63179 0 9.31818C0 13.0084 2.99155 16 6.68182 16C10.3721 16 13.3636 13.0084 13.3636 9.31818C13.3636 8.90397 13.0279 8.56818 12.6136 8.56818C12.1994 8.56818 11.8636 8.90397 11.8636 9.31818C11.8636 12.18 9.54366 14.5 6.68182 14.5C3.81998 14.5 1.5 12.18 1.5 9.31818C1.5 6.45634 3.81998 4.13636 6.68182 4.13636C6.68955 4.13636 6.69727 4.13624 6.705 4.136L6.70501 4.136L6.70513 4.136L6.70571 4.13598L6.70822 4.13591L6.71853 4.1356L6.75884 4.13444C6.79392 4.13345 6.84469 4.13208 6.90688 4.13055C7.03143 4.12749 7.20104 4.12383 7.38199 4.1214C7.60941 4.11834 7.83111 4.11771 8.00298 4.12069L6.31143 5.81224C6.01853 6.10514 6.01854 6.58001 6.31143 6.8729C6.60432 7.1658 7.0792 7.1658 7.37209 6.8729L10.1684 4.07662C10.4613 3.78372 10.4613 3.30885 10.1684 3.01596L7.37209 0.21967Z" fill="#3F434A"/>
</svg>
